<svg width="80" height="69" viewBox="0 0 80 69" fill="none" xmlns="http://www.w3.org/2000/svg">
<path d="M24.7392 4.63991H55.2555V0.9855C55.2555 0.624725 56.1913 0.0975564 56.5758 0.127103C61.3682 0.436561 66.6447 -0.27255 71.3763 0.123993C71.9523 0.1722 73.0048 0.430341 73.0048 1.14101V4.63991H79.1548C79.544 4.63991 79.8165 5.29459 79.8585 5.6476C80.036 7.13735 80.0563 11.815 79.8632 13.2783C79.8149 13.6469 79.3136 14.2813 78.9991 14.2813H76.4301V31.6981H79.1548C79.5067 31.6981 79.9706 32.4772 79.8632 32.8566V67.2376C79.8881 67.9623 79.5534 68.2733 78.8932 68.4459C53.054 68.6885 27.1728 68.4957 1.31796 68.5423C0.617335 68.3526 0.226539 68.152 0.137793 67.3885C-0.0443707 65.8365 -0.0474847 61.4683 0.137793 59.9179C0.179831 59.5649 0.452298 58.9102 0.841536 58.9102H20.3813V41.338H1.30707C0.810397 41.338 -0.0381429 40.6429 0.131565 40.0239V5.79844C0.0225783 5.41745 0.488108 4.63991 0.83998 4.63991H6.98995V1.14101C6.98995 0.430341 8.04245 0.1722 8.61852 0.123993C13.3517 -0.27255 18.6282 0.436561 23.4189 0.127103C23.8035 0.0975564 24.7392 0.624725 24.7392 0.9855V4.63991ZM22.4038 2.46282H9.32538V4.63991H22.4038V2.46282ZM70.6694 2.46282H57.591V4.63991H70.6694V2.46282ZM2.31909 39.0069H71.8371C71.9835 39.0069 72.6483 39.8824 72.5409 40.1701C72.0971 46.4759 73.1185 53.5624 72.544 59.7749C72.5113 60.1201 72.1859 61.0889 71.8356 61.0889H66.7755V66.2206H77.6741V33.8752H8.15767C8.01131 33.8752 7.34649 32.9997 7.45392 32.712C7.88676 26.4482 6.89031 19.4379 7.44925 13.2628C7.48973 12.818 7.79957 11.9487 8.31336 11.9487H77.6757C77.4546 11.0717 77.6928 10.176 77.6835 9.21959C77.6757 8.46693 77.2833 7.71428 77.6757 6.97407C76.9237 7.11558 76.1016 6.83722 75.4166 6.81856C73.4143 6.76569 71.3513 6.8139 69.3398 6.81079C48.3816 6.78435 27.4063 6.85277 6.43723 6.98029C5.69612 6.98495 4.941 6.78746 4.1018 6.81079C3.49926 6.82789 2.93097 7.05338 2.31909 6.97407V39.0069ZM20.3798 14.2813H9.79247V31.6981H20.3798V14.2813ZM33.7696 14.2813H22.7152V31.3093C22.7152 31.3342 22.4458 31.6981 22.793 31.6981H33.7696V14.2813ZM47.1594 14.2813H36.105V31.6981H47.1594V14.2813ZM60.7049 14.2813H49.4948V31.6981H60.7049V14.2813ZM74.0947 14.2813H62.8846L63.0403 31.6981H74.0947V14.2813ZM70.2023 41.3395H22.7152V58.523C22.7152 58.5479 22.4458 58.9118 22.793 58.9118H42.6442V45.1494C42.6442 44.7933 43.5364 44.1464 43.9598 44.2864L65.6124 44.291C65.9005 44.1837 66.777 44.8478 66.777 44.9939V58.9118H70.2023V41.3395ZM64.5973 46.6268H44.9796V48.8039H64.5973V46.6268ZM64.5973 50.9809H44.9796V53.3135H64.5973V50.9809ZM64.5973 57.8232C64.4992 57.2961 64.8308 55.7954 64.3731 55.5466L44.9796 55.4906V57.8232H64.5973ZM64.5973 60.1558H44.9796V62.3329H64.5973V60.1558ZM42.6442 61.0889H2.31909V66.2206H42.6442V61.0889ZM64.5973 64.6656H44.9796V66.2206H64.5973V64.6656Z" fill="#ED1C25" fill-opacity="0.5"/>
</svg>
