<svg width="57" height="57" viewBox="0 0 57 57" fill="none" xmlns="http://www.w3.org/2000/svg">
<path d="M28.9447 5.73793H32.0527C32.1622 5.73793 32.563 6.13965 32.563 6.2482V10.2839H37.5264C37.6702 10.2839 38.0367 10.7821 38.0367 10.8869V54.8159H41.0983V51.8007C41.0983 51.6022 41.5723 51.2385 41.7996 51.2033C43.1662 50.988 45.0477 51.3814 46.4402 51.206C46.6573 51.1791 46.5265 51.014 46.6193 51.0112C46.7065 51.0084 46.6193 51.1801 46.7251 51.2033C47.0822 51.2831 47.4784 50.976 47.8736 51.5205C48.1649 51.9223 47.9571 52.0614 47.9766 52.362C47.9998 52.7081 47.9868 52.8101 47.9933 53.1107C48.0044 53.6766 48.0675 54.2472 48.0582 54.8159H51.1198V25.3135H46.9913C46.9496 25.3135 46.5738 24.8681 46.5738 24.8032V22.623H42.5845V24.8032C42.5845 24.9294 42.2412 25.2791 42.0715 25.3107C41.7486 25.3719 39.7938 25.3469 39.5786 25.2105C39.2242 24.986 39.2706 24.369 39.5665 24.1046C39.9386 23.7725 40.6316 23.9738 41.0992 23.9209V21.8335C41.0992 21.4976 41.4712 21.2555 41.7894 21.2249C43.5707 21.0532 45.6359 21.3603 47.4487 21.236C47.7066 21.2239 48.0573 21.6173 48.0573 21.8335V23.9209H52.0002C52.1793 23.9209 52.6033 24.3449 52.6033 24.5239V54.815H55.5257C55.6277 54.815 55.9552 55.0367 56.0415 55.1341C56.4841 55.6323 56.036 56.2799 55.4348 56.3022C37.2036 56.2678 18.9621 56.3588 0.737405 56.2586C-0.135608 55.9914 0.222504 54.8159 0.881207 54.8159H3.80362V21.8344C3.80362 21.3028 5.02825 20.9632 5.45038 20.7907C8.9248 19.3694 12.5013 18.1781 15.9738 16.7494C17.0101 16.3468 17.5557 17.5491 16.6112 18.0362L5.28802 22.3456V54.8168H8.3496C8.50824 54.0106 7.90613 51.5447 8.90161 51.2404L14.6073 51.2042C14.8234 51.1782 15.3087 51.6541 15.3087 51.8017V54.8168H18.3702V10.8869C18.3702 10.7821 18.7367 10.2839 18.8805 10.2839H23.844V6.2482C23.844 6.13965 24.2447 5.73793 24.3542 5.73793H27.4622V0.867246C27.4622 0.583355 27.9492 0.248437 28.2443 0.264209C28.4632 0.276269 28.9466 0.689118 28.9466 0.867246V5.73793H28.9447ZM31.1713 7.12956H25.2337V10.2839H31.1713V7.12956ZM19.8528 54.8159H24.7698V51.708C24.7698 51.4018 25.2885 51.2172 25.5538 51.1931C27.0085 51.0613 30.3475 51.0363 31.7744 51.1977C32.0295 51.2265 32.563 51.4101 32.563 51.708V54.8159H36.5523V11.6755L32.5008 11.734L19.8518 11.6755V54.8168L19.8528 54.8159ZM13.8224 52.6821H9.83307V54.8159H13.8224V52.6821ZM31.1713 52.6821H26.1615V54.8159H31.1713V52.6821ZM46.572 52.6821H42.5827V54.8159H46.572V52.6821Z" fill="#ED1C25" fill-opacity="0.5"/>
<path d="M13.1017 47.9295C12.7334 47.5565 12.9848 46.7902 13.5174 46.6715C13.83 46.6019 15.1994 46.6047 15.5334 46.6575C16.3488 46.7865 16.3748 47.9091 15.5909 48.0965C15.1864 48.193 13.3726 48.2041 13.1017 47.9295Z" fill="#ED1C25" fill-opacity="0.5"/>
<path d="M46.2665 46.671C46.7498 46.5634 48.6972 46.504 48.8716 47.0885C49.2501 48.3512 47.3927 48.212 46.6144 48.1396C45.4129 48.0274 45.4435 46.8547 46.2665 46.671Z" fill="#ED1C25" fill-opacity="0.5"/>
<path d="M46.267 42.1253C46.7504 42.0168 48.6977 41.9583 48.8721 42.5428C49.2469 43.7934 47.3803 43.6654 46.6149 43.594C45.4274 43.4836 45.407 42.3183 46.267 42.1253Z" fill="#ED1C25" fill-opacity="0.5"/>
<path d="M40.7928 37.5792C41.0906 37.5124 42.6798 37.5161 42.9582 37.6015C43.4879 37.7629 43.6716 38.5339 43.1892 38.8632C42.7717 39.1481 40.6657 39.1694 40.3484 38.7269C40.0673 38.3363 40.3029 37.6896 40.7928 37.5792Z" fill="#ED1C25" fill-opacity="0.5"/>
<path d="M8.04375 42.1253C8.33877 42.0594 9.84266 42.0594 10.1386 42.1253C10.9393 42.3053 10.942 43.4047 10.044 43.568C9.78235 43.6153 8.79708 43.6153 8.48814 43.5967C7.22547 43.5234 7.23104 42.3071 8.04375 42.1253Z" fill="#ED1C25" fill-opacity="0.5"/>
<path d="M13.5171 42.1254C14.0004 42.0178 15.9478 41.9584 16.1222 42.542C16.4942 43.7861 14.7148 43.658 13.9587 43.5931C12.6589 43.4827 12.684 42.311 13.5171 42.1254Z" fill="#ED1C25" fill-opacity="0.5"/>
<path d="M8.04412 37.5792C8.34285 37.5124 9.93116 37.5161 10.2095 37.6015C10.9313 37.8214 10.8988 38.8688 10.0434 39.0228C9.57676 39.1063 7.96897 39.1286 7.65539 38.764C7.31583 38.3697 7.52179 37.6971 8.04319 37.5802L8.04412 37.5792Z" fill="#ED1C25" fill-opacity="0.5"/>
<path d="M7.95138 46.6711C8.17683 46.6052 9.88296 46.6145 10.139 46.6711C10.7049 46.7982 10.9508 47.4912 10.4906 47.9106C10.2309 48.1471 8.94593 48.1666 8.57761 48.1388C7.96437 48.0924 7.43555 48.0117 7.50606 47.2528C7.52555 47.0394 7.75099 46.7286 7.95046 46.6702L7.95138 46.6711Z" fill="#ED1C25" fill-opacity="0.5"/>
<path d="M40.7927 42.1251C41.2751 42.0166 43.2234 41.9591 43.3978 42.5417C43.7708 43.7877 41.9199 43.6661 41.1406 43.5938C39.9419 43.4815 40.0143 42.3005 40.7927 42.1251Z" fill="#ED1C25" fill-opacity="0.5"/>
<path d="M13.5179 37.5793C14.0012 37.4716 15.9486 37.4123 16.123 37.9967C16.4941 39.2344 14.6135 39.1175 13.8704 39.0432C12.6597 38.9217 12.694 37.7629 13.5179 37.5793Z" fill="#ED1C25" fill-opacity="0.5"/>
<path d="M40.7931 46.671C41.0918 46.6042 42.6801 46.6079 42.9585 46.6933C43.7016 46.9196 43.6097 48.0274 42.7896 48.1201C42.1161 47.9828 41.4138 48.2825 40.7421 48.0747C40.0546 47.8613 40.0871 46.8296 40.7931 46.671Z" fill="#ED1C25" fill-opacity="0.5"/>
<path d="M46.2664 37.5792C46.5661 37.5124 48.1535 37.5161 48.4318 37.6015C49.1824 37.8297 49.0701 38.9115 48.0932 39.0377C47.8928 39.0636 46.8314 39.0664 46.6143 39.0497C45.4203 38.9542 45.4398 37.7639 46.2655 37.5802L46.2664 37.5792Z" fill="#ED1C25" fill-opacity="0.5"/>
<path d="M10.5509 28.6767C10.794 28.9411 10.7754 29.4829 10.4906 29.7288C10.0907 30.0739 8.46533 29.9849 7.95414 29.8364C7.28894 29.6434 7.36409 28.6405 8.0432 28.4875C8.43193 28.4003 10.3013 28.4049 10.5509 28.6767Z" fill="#ED1C25" fill-opacity="0.5"/>
<path d="M40.7933 28.4875C41.0921 28.4207 42.6804 28.4244 42.9587 28.5097C43.6109 28.7083 43.6397 29.7288 42.9967 29.8559C42.4197 29.97 41.1802 29.9932 40.6282 29.8188C40.0762 29.6444 40.1216 28.6378 40.7933 28.4875Z" fill="#ED1C25" fill-opacity="0.5"/>
<path d="M46.2666 28.4875C46.5663 28.4207 48.1536 28.4244 48.432 28.5097C48.9645 28.6721 49.0768 29.457 48.6472 29.7557C48.1676 30.0897 47.8261 29.8503 47.3595 29.8503C46.8928 29.8503 46.1191 30.1036 45.7907 29.5729C45.5272 29.1462 45.7972 28.5923 46.2666 28.4875Z" fill="#ED1C25" fill-opacity="0.5"/>
<path d="M8.04362 33.0331C8.33772 32.9672 9.84531 32.9672 10.1385 33.0331C10.7489 33.1713 10.9855 33.9738 10.4419 34.318C9.97891 34.6112 8.48523 34.3746 7.88034 34.3626C7.30049 34.1473 7.38956 33.1797 8.04362 33.0331Z" fill="#ED1C25" fill-opacity="0.5"/>
<path d="M13.517 28.4875C13.774 28.4299 15.4792 28.4216 15.7046 28.4875C16.2195 28.6377 16.3104 29.572 15.8605 29.8104C15.6972 29.8967 14.3724 29.9292 14.094 29.9218C13.7174 29.9116 13.2489 29.9097 13.041 29.5729C12.7785 29.1462 13.0475 28.5923 13.517 28.4875Z" fill="#ED1C25" fill-opacity="0.5"/>
<path d="M40.7926 33.0336C41.0914 32.9668 42.6797 32.9705 42.958 33.0558C43.6158 33.2562 43.6315 34.2851 42.997 34.4039C42.7632 34.4475 40.7935 34.4586 40.6108 34.3844C40.069 34.1626 40.1302 33.1829 40.7917 33.0345L40.7926 33.0336Z" fill="#ED1C25" fill-opacity="0.5"/>
<path d="M13.5177 33.0336C13.8174 32.9668 15.4048 32.9705 15.6831 33.0558C16.2537 33.2293 16.3056 34.1209 15.8612 34.3565C15.6729 34.4567 13.553 34.4502 13.3322 34.3862C12.7403 34.2146 12.8358 33.1857 13.5177 33.0336Z" fill="#ED1C25" fill-opacity="0.5"/>
<path d="M8.04284 23.9409C8.33787 23.875 9.84175 23.875 10.1377 23.9409C10.891 24.1098 10.905 25.1887 10.2472 25.3103C9.95679 25.3641 8.12727 25.352 7.87863 25.2722C7.31641 25.0904 7.37394 24.0912 8.04284 23.9409Z" fill="#ED1C25" fill-opacity="0.5"/>
<path d="M46.2669 33.0336C46.5666 32.9668 48.154 32.9705 48.4323 33.0558C49.065 33.2488 49.1133 34.2044 48.3692 34.3964C48.1132 34.4623 46.2892 34.4465 46.0814 34.3862C45.4895 34.2146 45.5851 33.1857 46.2669 33.0336Z" fill="#ED1C25" fill-opacity="0.5"/>
<path d="M13.5166 23.9414C13.8162 23.8746 15.4036 23.8783 15.682 23.9636C16.3073 24.1538 16.3815 25.1836 15.6254 25.3089C15.2942 25.3636 13.6381 25.3608 13.3533 25.2727C12.6862 25.0658 12.8718 24.0852 13.5166 23.9414Z" fill="#ED1C25" fill-opacity="0.5"/>
<path d="M22.7764 26.6565C23.0436 26.6657 23.3525 26.9107 23.4286 27.1639C23.5223 27.4729 23.5418 29.0788 23.4267 29.3998C23.1976 30.0372 22.2772 30.0919 22.062 29.3655C21.8644 28.7012 21.7336 26.6221 22.7754 26.6574L22.7764 26.6565Z" fill="#ED1C25" fill-opacity="0.5"/>
<path d="M34.2115 26.8194C34.5093 27.1051 34.4731 29.0302 34.3219 29.4393C34.0593 30.1519 33.0499 29.9737 32.9386 29.251C32.8801 28.8697 32.8718 27.6061 32.9525 27.2341C33.0685 26.7006 33.8506 26.4724 34.2115 26.8194Z" fill="#ED1C25" fill-opacity="0.5"/>
<path d="M22.1999 36.0484C21.89 35.6828 21.9243 33.8978 22.1034 33.4553C22.3539 32.8374 23.3039 32.8838 23.4505 33.5434C23.5182 33.8477 23.5182 35.4258 23.4505 35.7301C23.3289 36.2729 22.5441 36.4529 22.1999 36.0484Z" fill="#ED1C25" fill-opacity="0.5"/>
<path d="M23.2555 23.3353C22.7601 23.7871 22.119 23.4476 22.0077 22.8325C21.9279 22.3881 21.9205 20.8434 22.1988 20.5159C22.5402 20.1142 23.3279 20.2867 23.4503 20.8341C23.5236 21.1625 23.518 22.4966 23.4744 22.8594C23.455 23.0162 23.3696 23.2314 23.2555 23.3353Z" fill="#ED1C25" fill-opacity="0.5"/>
<path d="M23.2598 14.1135C23.566 14.4178 23.5669 16.5386 23.3303 16.8689C23.0937 17.1992 22.4972 17.2706 22.2226 16.9607C21.9146 16.6128 21.9192 15.0041 22.0278 14.5449C22.1632 13.9743 22.8275 13.683 23.2598 14.1135Z" fill="#ED1C25" fill-opacity="0.5"/>
<path d="M33.1448 14.1135C33.5762 13.683 34.2423 13.9743 34.3778 14.5449C34.4863 15.0041 34.491 16.6128 34.1829 16.9607C33.9083 17.2706 33.3127 17.2001 33.0752 16.8689C32.8377 16.5377 32.8386 14.4187 33.1448 14.1135Z" fill="#ED1C25" fill-opacity="0.5"/>
<path d="M23.2596 42.4503C22.9729 42.7361 22.4673 42.7101 22.2121 42.391C21.8828 41.98 21.8846 40.0874 22.1843 39.6587C22.445 39.2867 23.0796 39.347 23.3301 39.6959C23.5667 40.0261 23.5657 42.1451 23.2596 42.4503Z" fill="#ED1C25" fill-opacity="0.5"/>
<path d="M33.1454 42.4508C32.8392 42.1465 32.8383 40.0256 33.0748 39.6953C33.3253 39.3465 33.9608 39.2853 34.2206 39.6582C34.5203 40.0869 34.5221 41.9795 34.1928 42.3905C33.9367 42.7096 33.432 42.7374 33.1454 42.4508Z" fill="#ED1C25" fill-opacity="0.5"/>
<path d="M34.2054 36.0484C33.8621 36.4538 33.0754 36.2729 32.9538 35.7301C32.8861 35.4258 32.8861 33.8477 32.9538 33.5434C33.1014 32.8838 34.0504 32.8374 34.3009 33.4553C34.467 33.8635 34.4846 35.7181 34.2054 36.0484Z" fill="#ED1C25" fill-opacity="0.5"/>
<path d="M34.2053 20.5164C34.4836 20.8448 34.4762 22.3904 34.3964 22.8329C34.2313 23.7496 33.104 23.7542 32.9556 22.9257C32.8907 22.5639 32.8767 21.1751 32.9538 20.8336C33.0753 20.2909 33.8611 20.1109 34.2053 20.5164Z" fill="#ED1C25" fill-opacity="0.5"/>
<path d="M23.2597 45.9354C23.5352 46.2091 23.5417 48.0386 23.4517 48.4413C23.2736 49.2336 22.1343 49.215 21.9952 48.1741C21.9497 47.8345 21.9701 46.622 22.0638 46.3102C22.2243 45.7749 22.8608 45.5383 23.2597 45.9354Z" fill="#ED1C25" fill-opacity="0.5"/>
<path d="M33.5563 45.7406C34.5843 45.5791 34.4887 47.4588 34.4182 48.0906C34.2837 49.3013 33.0321 49.2994 32.9292 48.187C32.8716 47.5617 32.7436 45.8686 33.5563 45.7406Z" fill="#ED1C25" fill-opacity="0.5"/>
<path d="M29.94 45.7422C30.4457 45.6754 30.673 46.0669 30.7119 46.5085C30.7481 46.9177 30.7694 48.1776 30.6878 48.5338C30.5496 49.1387 29.5773 49.109 29.3648 48.5978C29.2758 48.3844 29.2739 46.5345 29.3361 46.2543C29.3908 46.0076 29.7025 45.7738 29.94 45.7422Z" fill="#ED1C25" fill-opacity="0.5"/>
<path d="M26.3241 45.7412C26.7342 45.7069 27.0459 46.0298 27.0904 46.4176C27.1285 46.7413 27.1424 48.2833 27.07 48.5338C26.9039 49.1043 25.7953 49.2314 25.696 48.3686C25.6506 47.9753 25.6394 46.6068 25.7174 46.2533C25.7786 45.9769 26.0467 45.7644 26.3241 45.7412Z" fill="#ED1C25" fill-opacity="0.5"/>
<path d="M29.8482 33.03C30.1302 32.9724 30.544 33.1292 30.66 33.3862C30.7388 33.5616 30.7694 35.5646 30.6869 35.8234C30.4939 36.4302 29.4158 36.4497 29.3138 35.5674C29.2702 35.1888 29.26 33.8844 29.3361 33.5439C29.3871 33.3139 29.6153 33.0782 29.8482 33.03Z" fill="#ED1C25" fill-opacity="0.5"/>
<path d="M26.2293 33.0296C26.5392 32.9655 26.8917 33.1093 27.0188 33.4081C27.1292 33.6678 27.1394 35.4139 27.0689 35.7302C26.9288 36.3592 25.9825 36.4567 25.7459 35.887C25.6652 35.6931 25.6494 33.7949 25.6995 33.5259C25.7394 33.3116 26.0205 33.0722 26.2293 33.0296Z" fill="#ED1C25" fill-opacity="0.5"/>
<path d="M29.9437 13.9202C30.2675 13.8738 30.5143 13.9879 30.6376 14.2969C30.7378 14.5492 30.7675 16.4428 30.6887 16.7118C30.5337 17.2453 29.6245 17.3529 29.387 16.7536C29.2748 16.4715 29.2637 14.7626 29.3369 14.4323C29.4019 14.1382 29.657 13.962 29.9437 13.9202Z" fill="#ED1C25" fill-opacity="0.5"/>
<path d="M25.9102 39.5357C26.3397 39.1896 26.9966 39.467 27.0838 40.0237C27.1385 40.3697 27.1404 41.8077 27.0689 42.1325C26.9168 42.8218 25.8211 42.8199 25.7024 42.0545C25.6411 41.6621 25.643 40.418 25.6931 40.0153C25.7107 39.8743 25.8053 39.621 25.9092 39.5366L25.9102 39.5357Z" fill="#ED1C25" fill-opacity="0.5"/>
<path d="M26.1348 20.3215C26.4372 20.2306 26.8287 20.3595 26.9855 20.6388C27.133 20.9013 27.146 22.6761 27.069 23.0203C26.9085 23.7402 25.8258 23.7291 25.7024 22.9414C25.6477 22.5926 25.6542 20.8568 25.785 20.623C25.8258 20.5506 26.0522 20.3456 26.1339 20.3205L26.1348 20.3215Z" fill="#ED1C25" fill-opacity="0.5"/>
<path d="M29.8463 20.3229C30.159 20.2533 30.5338 20.3777 30.659 20.6773C30.7481 20.8907 30.7499 22.7406 30.6878 23.0208C30.5245 23.751 29.4177 23.7547 29.3138 22.8575C29.2702 22.479 29.26 21.1746 29.3361 20.8341C29.3889 20.5985 29.6088 20.3758 29.8463 20.3229Z" fill="#ED1C25" fill-opacity="0.5"/>
<path d="M29.7515 39.4344C30.1309 39.3203 30.6273 39.5207 30.7043 39.927C30.7609 40.223 30.7507 41.8401 30.6867 42.1314C30.5345 42.8207 29.4388 42.8188 29.3201 42.0534C29.2551 41.6322 29.2589 40.0077 29.4583 39.6979C29.5205 39.6023 29.642 39.4678 29.7515 39.4344Z" fill="#ED1C25" fill-opacity="0.5"/>
<path d="M26.3223 13.9213C26.763 13.8795 27.0422 14.1745 27.0905 14.5957C27.1341 14.9733 27.1452 16.2815 27.0691 16.6192C26.9188 17.289 25.979 17.3372 25.7452 16.7759C25.6562 16.5616 25.6543 14.7145 25.7165 14.4324C25.7786 14.1504 26.0412 13.9482 26.3214 13.9222L26.3223 13.9213Z" fill="#ED1C25" fill-opacity="0.5"/>
<path d="M26.8768 26.826C26.9826 26.916 27.0744 27.16 27.093 27.3047C27.131 27.6108 27.1394 29.1852 27.0698 29.4227C26.9037 29.9924 25.8192 30.0824 25.7032 29.343C25.6485 28.995 25.6438 27.4615 25.7171 27.1423C25.8275 26.6673 26.5196 26.5217 26.8768 26.826Z" fill="#ED1C25" fill-opacity="0.5"/>
<path d="M29.5277 26.8253C29.8849 26.522 30.5779 26.6676 30.6874 27.1417C30.7616 27.4608 30.756 28.9953 30.7013 29.3423C30.5853 30.0808 29.5008 29.9917 29.3347 29.4221C29.2651 29.1846 29.2735 27.6102 29.3115 27.304C29.3292 27.1593 29.4219 26.9153 29.5277 26.8253Z" fill="#ED1C25" fill-opacity="0.5"/>
</svg>
