<svg width="47" height="55" viewBox="0 0 47 55" fill="none" xmlns="http://www.w3.org/2000/svg">
<path d="M14.8537 33.4678C16.9158 33.9441 16.6315 31.4643 17.7939 29.8497C20.8096 25.6537 27.4565 25.8604 30.2707 30.1964C30.8213 31.0441 31.3071 33.3242 31.4438 33.4328C31.559 33.5238 33.4843 33.4783 34.384 33.8986C35.2837 34.3189 45.5005 46.4235 46.3174 47.849C47.764 50.3743 46.9004 53.3024 43.8306 53.7893C30.8429 52.9136 16.3004 54.9276 3.49979 53.7963C0.286128 53.5126 -0.501991 51.0433 0.368899 48.2658C4.12236 44.0838 7.32163 39.387 11.0643 35.2085C11.5609 34.6551 12.6873 34.1087 12.8709 33.8145C13.2631 33.1876 13.2127 28.2456 12.6981 27.6817C12.565 27.5345 10.5425 26.5714 10.3014 26.5503C9.70398 26.4943 8.70354 27.0827 7.83984 27.1633C2.12508 27.7097 -1.68597 22.5785 0.746765 17.4579C1.04546 16.8309 1.81199 16.4737 1.91275 15.7592C2.14667 14.0675 0.95549 12.796 1.99552 10.2637C3.03555 7.73144 5.34233 7.49327 6.39316 6.13781C7.1129 5.20964 7.18488 3.84017 8.19252 2.63531C10.6648 -0.331303 15.9442 -0.278766 18.4633 2.55826C19.2622 3.4584 19.6077 5.25167 19.9891 5.69999C21.0687 6.9714 23.5375 6.50907 24.7502 9.99405C25.0921 10.9783 24.9374 12.7575 25.1137 13.1323C25.3368 13.5981 26.1861 14.0219 26.5316 14.5683C29.6445 19.5208 27.3629 23.99 21.7849 25.314C21.0184 25.4961 20.1439 25.2719 19.4277 25.4716C18.5568 25.7168 16.5559 28.221 14.8573 27.8533V33.4573L14.8537 33.4678ZM13.0544 26.1125V18.5822C13.0544 18.2599 8.63156 15.2303 8.19252 14.2111C8.11335 14.0289 8.33287 13.1883 8.37605 13.1568C9.13178 12.5894 12.2771 15.6856 12.8745 16.3055L13.5978 14.5613C13.9757 14.3827 14.8537 14.803 14.8537 15.0832V21.2125C15.2712 20.7572 17.3333 18.4421 17.7327 19.9937C18.0494 21.2266 15.246 22.512 14.9293 23.5627C14.7998 23.9935 14.4723 26.2772 15.354 26.0845C17.0274 25.7203 18.2581 23.9655 19.0642 23.7378C19.9495 23.4857 21.1263 23.7694 22.1484 23.5872C25.4484 23.0058 27.183 19.2932 25.7255 16.4141C25.2433 15.4579 23.9513 14.8415 23.649 13.8818C23.1884 12.4318 23.6994 11.1674 22.717 9.53523C21.6481 7.76647 19.7804 7.76647 18.7979 6.6947C17.3261 5.08005 17.5024 2.30257 13.9109 1.96984C8.44083 1.45847 9.52764 5.38827 7.6707 7.3952C6.47953 8.68412 4.15475 8.6526 3.51058 11.0483C2.95638 13.1113 3.94603 14.6874 3.70851 16.1199C3.59695 16.7819 2.67208 17.5034 2.30141 18.2775C0.206957 22.6135 3.51058 25.9129 8.18172 25.4015C8.85108 25.328 9.40529 24.7466 9.99907 24.7431C10.6972 24.7396 12.9608 26.2526 13.0616 26.123L13.0544 26.1125ZM24.2032 43.2748C25.0345 40.6304 29.1407 38.4588 29.5833 35.7234C31.12 26.2106 17.4628 26.4698 18.0818 34.6866C18.3301 37.993 22.2851 40.7214 24.2032 43.2748ZM22.0512 43.9753C21.2559 41.6006 18.6972 40.2941 17.4376 38.1331C16.3976 36.3503 16.7359 34.0282 13.4215 35.4012C11.8056 36.0701 7.72828 42.4202 6.21682 43.9753H22.0512ZM25.6499 43.9753H40.7645L34.1825 35.6743C30.8285 34.3364 31.7929 35.4712 30.8645 37.3205C29.5833 39.8773 26.8627 41.3554 25.6463 43.9753H25.6499ZM29.6085 45.3763H4.95727C4.67297 45.3763 1.68603 49.2885 1.59606 49.8314C1.42692 50.8542 2.40577 51.8734 3.31985 52.2236C9.30452 52.0555 16.3868 52.9802 22.2527 52.3988C22.7601 52.3497 23.2819 52.4513 23.6958 52.052L29.6085 45.3728V45.3763ZM25.6499 52.3812H43.4636C44.2013 52.3812 45.522 50.7666 45.3817 49.8384C45.2881 49.215 42.6539 45.7615 42.2076 45.5479C41.5455 45.2327 34.5459 45.2397 33.3656 45.3552C32.7358 45.4148 32.5307 45.3693 31.9297 45.709C29.9864 46.7983 27.4889 50.8331 25.6499 52.3812Z" fill="#ED1C25" fill-opacity="0.5"/>
<path d="M23.4079 29.6846C29.5797 28.8615 30.4218 38.3042 24.3472 38.7105C18.5461 39.0993 17.5276 30.4692 23.4079 29.6846ZM21.7993 36.1712C23.793 38.4654 28.3634 35.828 26.3949 32.5707C24.4624 29.3799 19.0895 33.047 21.7993 36.1712Z" fill="#ED1C25" fill-opacity="0.5"/>
</svg>
