<svg width="104" height="55" viewBox="0 0 104 55" fill="none" xmlns="http://www.w3.org/2000/svg">
<path d="M0.428192 22.0244C0.2937 22.0244 -0.0102156 22.35 0.000264281 21.6847L21.8298 0.571331H22.3468L28.902 6.9654L29.1535 6.00594L29.1622 4.16581H34.9262C35.3436 5.94991 34.1943 11.5806 34.9174 12.8412C34.9995 12.9848 36.6571 14.6341 36.7846 14.6568L51.4669 0.508301L58.5059 6.96715V4.42843C58.5059 4.40917 58.7486 4.16581 58.7679 4.16581H64.1824C64.5824 4.16581 64.2663 5.04998 64.261 5.29685C64.2086 7.6885 64.3135 10.0872 64.2733 12.4788C64.3868 13.0758 65.868 14.1018 66.2784 14.6674L80.8105 0.508301L81.3065 0.653621L87.7621 6.9654L88.0241 4.16406H93.5261C94.099 4.16406 93.6186 6.31409 93.6064 6.69577C93.5453 8.70049 93.5907 10.7385 93.7042 12.7397C96.7085 15.6758 99.6585 18.6855 102.691 21.5937C102.834 21.7302 103.016 21.8511 103.22 21.8511C103.087 22.3413 102.881 22.0226 102.783 22.0226H99.6393C99.5817 22.0226 99.3738 22.2537 99.2027 22.1977V45.4839H101.124V54.063H2.26217V45.4839C2.26217 45.4051 3.83415 45.5627 3.83415 45.4839V22.8123C3.83415 22.6494 3.76079 22.0244 3.57215 22.0244C2.52416 22.0244 1.47618 22.0191 0.428192 22.0244ZM5.23146 20.4486V45.223C5.23146 45.2423 5.47425 45.4857 5.49346 45.4857H97.6289V20.7113C97.6289 20.1352 99.4664 21.0106 99.1992 20.3628L92.0746 13.321C91.9523 10.7875 92.0641 8.26453 92.2143 5.73981H89.4197V10.6422L80.945 2.62507L66.2487 16.7561C65.9186 16.8191 63.2218 13.7622 62.6943 13.3577V5.74156H60.0743V10.3813C60.0743 10.4023 59.8211 10.7315 59.725 10.5581L51.3446 2.59355L36.7828 16.7579L33.2127 13.3227L33.3507 5.74331H30.8181C30.7988 5.74331 30.5561 5.98668 30.5561 6.00594V10.6457L22.111 2.60406C21.7041 2.67759 20.6631 4.05726 20.3487 4.34965C14.7681 9.55139 9.40769 14.9755 3.91973 20.2718L3.83764 20.6237L5.23321 20.4486H5.23146ZM99.5502 47.0614H3.83415V52.489H99.5502V47.0614Z" fill="#ED1C25" fill-opacity="0.5"/>
<path d="M25.8422 25.5264V38.6578H18.3316V25.5264H25.8422ZM24.2702 27.1022H19.9036V37.082H24.2702V27.1022Z" fill="#ED1C25" fill-opacity="0.5"/>
<path d="M84.7033 25.5264V38.6578H77.1928V25.5264H84.7033ZM83.1314 27.1022H78.7647V37.082H83.1314V27.1022Z" fill="#ED1C25" fill-opacity="0.5"/>
<path d="M55.3603 25.7015V38.6578H47.8497V25.7891C47.8497 25.7698 48.0925 25.5264 48.1117 25.5264H54.9236C54.9812 25.5264 55.1891 25.7576 55.3603 25.7015ZM53.7883 27.1022H49.4217V37.082H53.7883V27.1022Z" fill="#ED1C25" fill-opacity="0.5"/>
</svg>
