<svg width="52" height="48" viewBox="0 0 52 48" fill="none" xmlns="http://www.w3.org/2000/svg">
<path d="M24.9524 9.25756C35.4745 8.18419 43.2219 18.5393 39.1356 28.34C38.8327 29.0659 37.0623 31.5979 37.0779 31.7984C37.089 31.9431 37.8796 32.7159 38.0711 32.7649C38.5321 32.8829 39.1601 32.3596 39.7836 32.3707C40.367 32.3818 41.407 32.8094 41.9081 33.1479C43.3778 34.1411 49.4974 40.3831 50.7222 41.9264C51.7956 43.2803 52.261 44.3537 51.4749 46.0239C50.4438 48.2107 47.9341 48.3109 46.1503 46.9436C44.3666 45.5763 38.6635 39.8531 37.3785 38.1228C36.9309 37.5215 36.4566 36.7354 36.412 35.9716C36.3742 35.308 36.8819 34.5442 36.7684 34.0676C36.7238 33.8783 35.9132 33.0633 35.8041 33.0633C35.6304 33.0633 33.5416 34.7579 32.9492 35.0675C24.2286 39.6282 13.5884 33.7313 12.7823 23.9752C12.1877 16.7645 17.7617 9.99467 24.9546 9.25979L24.9524 9.25756ZM25.175 11.0413C8.77161 12.785 12.7511 38.5994 29.6266 34.4217C43.4803 30.9922 39.9573 9.46912 25.175 11.0413ZM41.623 35.3258C39.7435 33.6133 37.6346 34.0297 38.5811 36.6976L47.5956 45.721C49.2791 46.7677 50.6999 45.0841 49.7223 43.5988C46.9364 41.0467 44.3844 37.8444 41.623 35.328V35.3258Z" fill="#ED1C25"/>
<path d="M30.1209 8.30183V2.8459C30.1209 2.28917 29.1744 1.99076 28.6823 2.05757C20.5318 2.5898 11.5507 1.38059 3.49814 2.05757C2.25775 2.16224 2.15531 2.26467 2.05065 3.50506L2.0551 40.0398C2.12636 40.67 2.28447 41.3069 3.0483 41.2735L29.3392 41.2601C31.2455 40.2603 28.6311 36.9956 31.9002 37.2517V40.9261C31.9002 41.563 30.3814 43.1552 29.5664 43.0461H2.61183C0.772398 42.7344 0.391596 41.5118 0.269116 39.8215C-0.588245 28.0167 0.93719 15.1941 0.269116 3.28237C0.445042 1.3316 1.31799 0.449739 3.27767 0.27604C11.466 0.966383 21.1041 -0.614725 29.1188 0.284948C30.2612 0.414109 31.9024 1.36277 31.9024 2.62321V8.41318C31.9024 9.03003 30.5462 8.19049 30.1209 8.30183Z" fill="#ED1C25"/>
<path d="M18.9862 15.873C18.6187 15.5478 20.4693 14.2985 20.7031 14.1382L29.7488 14.0602C30.3434 13.8665 29.731 13.3031 30.2298 12.9824C30.9224 13.5547 31.7909 13.3788 31.9134 14.4121C32.5391 19.6008 31.4123 26.0344 31.9134 31.3611C31.9958 32.4033 29.4014 33.4567 30.1229 31.9089C29.7176 31.5705 22.1551 32.3833 20.6875 31.6551C20.4604 31.5415 18.9973 30.3479 18.9906 30.2388C18.9572 29.6909 19.5139 30.1274 19.5429 30.1274H29.7867C30.1808 30.1274 30.1586 28.8826 30.1207 28.5686H17.7614C17.65 28.5686 16.3473 26.7871 17.0933 26.7871H30.1207V25.4509H16.3139C16.2248 25.4509 16.0043 23.901 16.0912 23.6694H30.1207C30.1586 23.3554 30.1808 22.1105 29.7867 22.1105H16.0912C16.0043 21.8789 16.2248 20.329 16.3139 20.329H30.1207V18.9929H16.7592C16.9352 18.7123 17.5476 17.2113 17.7614 17.2113H30.1207V15.8752H18.9862V15.873Z" fill="#ED1C25"/>
</svg>
