<svg width="49" height="48" viewBox="0 0 49 48" fill="none" xmlns="http://www.w3.org/2000/svg">
<path d="M39.5393 6.51601C44.1532 10.9519 47.0684 17.5538 46.5417 24.0295C46.475 24.8233 46.3044 26.1288 45.1843 25.9063C44.6873 25.8098 44.4425 25.3944 44.4647 24.9197C44.5389 23.1542 44.7763 22.0341 44.5241 20.1797C42.8402 7.51001 29.7032 -0.731221 17.4564 2.74033C2.94707 6.85723 -2.72017 24.4153 6.15157 36.5212C10.7877 42.8486 18.5616 46.0976 26.38 44.9998C27.1441 45.1704 27.3295 46.1941 26.7509 46.6911C26.2614 47.1065 24.8297 47.0397 24.1769 47.062C8.42144 47.6851 -2.91303 33.1238 0.662369 17.9098C4.77186 0.388874 26.5432 -5.96822 39.5393 6.51601Z" fill="#ED1C25"/>
<path d="M36.2164 25.9434C47.5212 24.9494 53.0475 38.8653 44.2054 45.7268C38.0931 50.4742 28.8876 47.4106 26.7735 40.015C24.9265 33.5392 29.4514 26.5368 36.2164 25.9434ZM36.5131 27.872C29.5923 28.4358 25.8908 36.499 29.9409 42.1884C34.1617 48.1227 43.523 46.9433 46.0822 40.104C48.5078 33.6208 43.2634 27.3157 36.5206 27.872H36.5131Z" fill="#ED1C25"/>
<path d="M35.4446 13.5629C31.7209 17.2422 27.96 20.8844 24.2882 24.623C23.8357 25.0235 23.3387 24.9197 22.8566 24.6452L13.2727 17.9098C12.4419 17.1235 13.2875 15.8106 14.326 16.263L23.5019 22.6498C27.3073 18.9186 31.0384 15.1059 34.829 11.3524C35.7785 10.6997 36.6983 11.842 36.2384 12.7618C36.0677 13.103 35.7043 13.3182 35.4521 13.5704L35.4446 13.5629Z" fill="#ED1C25"/>
<path d="M4.01562 22.8204C4.35684 22.7536 6.23355 22.7611 6.53769 22.8575C7.46492 23.1616 7.39074 24.6452 6.2929 24.7936C5.19506 24.9419 4.23815 24.8529 3.91177 24.7416C3.02904 24.4523 3.08097 23.0059 4.02304 22.813L4.01562 22.8204Z" fill="#ED1C25"/>
<path d="M8.62151 31.1285C9.41522 31.0395 10.0235 31.9741 9.63776 32.664C9.25203 33.3538 7.87973 33.9992 7.58302 34.0956C6.6632 34.3849 5.86208 33.4354 6.35165 32.6491C6.84123 31.8628 8.26546 31.173 8.62151 31.1285Z" fill="#ED1C25"/>
<path d="M6.90848 14.0748C7.11618 14.0599 7.33872 14.1564 7.52416 14.238C7.79862 14.3566 9.23768 15.1726 9.37862 15.3506C9.96463 16.0924 9.21543 17.2199 8.31045 16.9455C7.40548 16.671 6.35214 15.907 6.21862 15.766C5.66229 15.1652 6.10735 14.1193 6.90848 14.0748Z" fill="#ED1C25"/>
<path d="M13.703 10.0245C13.4953 9.83168 12.6274 8.74868 12.4568 8.48905C11.893 7.61375 12.3752 6.70135 13.4137 6.86455C14.4522 7.02774 14.5486 7.91788 14.786 8.23685C15.0234 8.55581 15.3275 8.90445 15.3646 9.06765C15.5945 10.0394 14.4151 10.6996 13.703 10.0245Z" fill="#ED1C25"/>
<path d="M22.9306 39.4439C23.3609 39.3772 23.9172 39.5329 24.0433 40.0003C24.1694 40.4676 24.2139 42.4111 24.1027 42.7671C23.895 43.4496 22.7007 43.5163 22.3669 42.8636C22.0331 42.2108 22.2259 42.0699 22.2111 41.8325C22.1666 41.0684 21.9663 39.5997 22.9306 39.4439Z" fill="#ED1C25"/>
<path d="M15.5875 37.5969C15.81 37.8269 15.8842 38.2349 15.8026 38.539C15.721 38.8431 14.727 40.3193 14.5786 40.4825C13.9407 41.1649 12.7019 40.5863 12.8874 39.6294C13.0728 38.6725 13.9926 37.7675 14.1781 37.5821C14.5786 37.1741 15.2017 37.1964 15.5949 37.5969H15.5875Z" fill="#ED1C25"/>
<path d="M23.0046 3.83064C23.5683 3.71937 24.0505 4.11993 24.1321 4.67627C24.2137 5.23261 24.1988 6.76069 24.1247 7.10191C23.9466 7.90304 22.4334 7.95496 22.2925 6.88679C22.2331 6.46397 22.2257 4.8543 22.2999 4.46116C22.3741 4.06801 22.7079 3.88998 23.0046 3.83064Z" fill="#ED1C25"/>
<path d="M42.1431 32.9903C43.0406 32.8049 43.7379 33.5986 43.278 34.422L36.6019 41.098C36.2681 41.3799 35.8379 41.4912 35.4818 41.1722C35.0071 40.7494 34.4211 39.926 33.9686 39.4216C33.5161 38.9172 32.1216 37.7229 32.1438 37.0108C32.1661 36.3135 32.8263 35.9278 33.4716 36.1281C33.7164 36.2023 34.1763 36.7215 34.3766 36.9292C34.9626 37.5375 35.4596 38.2867 36.1049 38.8134L41.7128 33.2203C41.8315 33.1239 41.9947 33.0126 42.1357 32.9829L42.1431 32.9903Z" fill="#ED1C25"/>
</svg>
