<svg width="75" height="47" viewBox="0 0 75 47" fill="none" xmlns="http://www.w3.org/2000/svg">
<path d="M61.383 21.6238V34.9164C62.1257 35.2624 64.1934 37.4483 64.877 37.4061C65.5522 37.3639 67.0629 35.1527 68.2782 34.8151C70.405 34.2159 71.5782 36.6212 73.1226 37.2711C73.7387 37.5327 74.397 37.3555 74.3886 38.2923C74.3802 39.6427 72.7682 39.1278 72.0255 38.7058C71.3334 38.3176 69.5104 36.4778 68.9365 36.4778C68.3964 36.4778 66.8688 38.3176 66.2696 38.7058C64.2609 39.9887 62.8684 38.3261 61.383 37.1529V44.7487H65.0543C65.1724 44.7487 65.6028 45.0019 65.6872 45.1285C66.0164 45.5842 65.8476 46.251 65.3496 46.4873L9.25912 46.5295C8.55862 46.4704 8.33919 45.5252 8.79494 45.0525C9.25068 44.5799 9.26756 44.7571 9.34352 44.7571H13.0148V28.5528C11.5463 29.861 10.4238 31.6502 8.22947 30.5109C7.41925 30.0889 5.65535 28.2996 5.01393 28.2321C4.37251 28.1646 2.81959 30.2492 1.89122 30.6459C1.13165 30.975 -0.0330412 31.0932 0.000717761 29.9454C0.026037 29.093 0.667457 29.2618 1.18228 29.0086C2.54952 28.3334 3.21626 26.1222 5.35152 26.4598C6.76939 26.6877 8.71898 29.093 9.52075 29.1183C10.2466 29.1436 11.9767 26.5442 13.0064 26.5273V21.5478C12.2721 21.9698 11.5632 22.5606 10.6854 22.645C7.72309 22.9235 6.24614 19.362 8.40671 17.4124L35.7346 0.347217C36.5532 -0.0916493 37.6167 -0.108529 38.4691 0.26282L66.0079 17.4546C68.1263 19.421 66.6156 22.9151 63.687 22.645C62.7586 22.5606 62.1763 21.9108 61.3661 21.6322L61.383 21.6238ZM36.8908 1.80729C36.7642 1.83261 36.6461 1.88325 36.5279 1.95077L9.65578 18.7121C8.51642 19.632 9.57139 21.3369 10.9049 20.7208L36.5448 4.75276C37.1609 4.42361 37.2453 4.44049 37.8614 4.75276C46.5206 10.0951 55.0954 15.6147 63.8052 20.8389C65.1386 21.0499 65.7463 19.4042 64.666 18.6277C55.5764 13.0575 46.5881 7.25937 37.4563 1.78197C37.2622 1.78197 37.0681 1.76509 36.8824 1.80729H36.8908ZM14.7956 28.9664V44.7487H59.6106V36.8997C58.1168 38.2248 57.0534 39.9549 54.8253 38.7734C54.0488 38.3598 52.2512 36.52 51.6182 36.5031C50.9852 36.4862 49.8458 38.0138 49.3985 38.3851C48.563 39.0688 46.4109 39.8705 46.6978 38.0475C46.8075 37.3724 47.5756 37.4905 48.0735 37.1445C49.0272 36.4693 49.6686 35.2202 50.9177 34.8404C52.7997 34.2665 54.0995 36.1739 55.4498 37.0601C56.2938 37.6171 56.4204 37.4146 57.1209 36.8153C57.9142 36.1402 58.5219 35.119 59.6022 34.8658V20.5013L58.8764 19.9527L37.2031 6.45759L15.226 20.1553L14.8125 20.5013V26.7552C15.6733 27.0337 17.4288 29.1014 18.2137 29.1014C18.7116 29.1014 20.3574 27.1518 21.0663 26.7552C23.3788 25.4808 24.746 28.1308 26.4171 28.9495C26.8982 29.1858 27.7 29.1352 27.7759 29.8694C27.9025 31.1438 26.4762 30.9328 25.7082 30.5784C24.822 30.1648 22.9737 28.2574 22.3407 28.1984C21.7077 28.1393 20.5262 29.6922 20.0282 30.0973C18.1462 31.6502 16.973 30.629 15.4286 29.3799C15.3526 29.3124 14.8547 28.8904 14.7956 28.9579V28.9664Z" fill="#ED1C25"/>
</svg>
