<svg width="53" height="53" viewBox="0 0 53 53" fill="none" xmlns="http://www.w3.org/2000/svg">
<path d="M27.1028 0C28.8155 0.511612 29.8396 2.02968 31.1347 3.13511C31.9916 3.86684 32.4131 4.03449 33.5589 3.88468C35.5037 3.6305 38.0469 2.2817 39.817 3.70351C41.8229 5.31514 41.2089 9.03704 43.3318 10.1949C45.2236 11.2268 48.4673 11.13 49.3929 13.4917C50.1757 15.4895 48.9764 17.503 48.8038 19.4488C48.7048 20.564 48.9574 20.9393 49.6099 21.7662C50.6659 23.1048 52.2039 24.1323 52.6924 25.8505V27.1484C52.2006 28.9683 50.5225 30.0332 49.4465 31.4479C48.7746 32.3316 48.7032 32.8248 48.8601 33.9276C49.1311 35.8345 50.2753 38.0572 49.1987 39.9079C47.9144 42.1155 44.8151 41.7721 42.9915 43.0046C41.3934 44.0846 41.6969 47.8476 39.7634 49.4041C38.0599 50.7756 35.3906 49.4268 33.5069 49.1672C31.6833 48.9163 31.106 50.0385 29.9278 51.1039C29.0714 51.8783 28.1663 52.6409 27.0492 53H25.859C25.1395 52.788 24.4925 52.4159 23.911 51.9459C22.9394 51.1618 21.3775 49.2121 20.1538 49.104C17.905 48.9049 15.397 50.7881 13.1091 49.5485C10.6271 48.204 11.2124 43.8883 9.3428 42.7137C7.62139 41.632 4.49287 41.7224 3.40712 39.7781C2.29053 37.7782 3.82746 35.4089 3.89779 33.3981C3.95405 31.7892 2.11579 30.5615 1.16258 29.4209C0.64323 28.7996 0.229918 28.15 0 27.3653V25.6347C0.456591 23.9317 1.94592 22.9095 3.02789 21.6581C3.89563 20.6543 4.026 20.2049 3.8253 18.8631C3.5521 17.0363 2.43064 15.0477 3.4531 13.2678C4.57835 11.309 7.52455 11.4264 9.28708 10.3929C10.4686 9.70008 10.6834 7.98407 11.0756 6.77264C11.9617 4.03611 12.989 2.66244 16.1327 3.15242C18.1284 3.46339 19.853 4.60721 21.6653 3.18973C23.0384 2.11567 24.0657 0.473214 25.859 0H27.1033L27.1028 0ZM47.533 13.5934C46.6529 12.7 44.193 12.322 42.9709 11.7995C40.22 10.6227 40.4488 8.52056 39.4924 6.13718C38.9979 4.90412 38.5808 4.51852 37.1927 4.65156C35.4474 4.81921 33.5664 5.85217 31.785 5.35084C30.135 4.88628 29.0579 3.17621 27.7768 2.16489C26.4958 1.15356 25.8915 1.37313 24.7214 2.35201C23.4917 3.37956 22.5298 4.84842 20.8814 5.2735C18.6948 5.83757 16.5438 4.36439 14.4762 4.60289C12.81 4.79488 12.4599 7.57792 12.0245 8.85803C11.4699 10.4891 10.9263 11.3415 9.30331 12.0326C8.20673 12.4993 5.2086 13.0072 4.69466 14.0234C4.11148 15.1748 5.23889 17.7799 5.34817 19.1249C5.57268 21.8836 3.93837 22.5888 2.38087 24.3654C-0.175279 27.2804 2.83746 28.5984 4.45663 30.7243C6.16289 32.9644 5.05658 34.6122 4.62271 36.9902C4.35492 38.4585 4.35709 39.1254 5.80476 39.7603C8.33386 40.8689 10.5146 40.4395 11.7642 43.4833C12.3014 44.7915 12.6698 47.9785 14.2782 48.2711C16.2582 48.6313 18.697 47.0959 20.8382 47.6621C22.8263 48.1878 24.9426 51.4462 26.3773 51.4808C27.5188 51.5084 29.1379 49.4901 29.9684 48.7546C32.3076 46.6838 33.7974 47.6037 36.4602 48.1613C38.1897 48.5231 38.8621 48.5561 39.5459 46.8098C40.4218 44.573 40.3071 42.3508 42.8465 41.2399C44.0799 40.7002 47.1684 40.2427 47.7776 39.0848C48.47 37.7685 47.2528 34.9438 47.1706 33.3987C47.0342 30.8401 48.9764 29.8282 50.3635 28.0949C51.532 26.6347 51.2501 25.9889 50.1222 24.6612C48.0096 22.1746 46.6334 21.8712 47.4064 18.1076C47.6672 16.8389 48.5652 14.6426 47.533 13.594V13.5934Z" fill="#ED1C25"/>
<path d="M37.3085 15.4863C45.5445 23.5591 42.4252 37.5609 31.6212 41.4277C19.2797 45.8451 7.2509 34.0158 11.4673 21.6046C15.1617 10.7304 29.0677 7.40872 37.3085 15.4863ZM35.5736 16.031C27.587 9.03549 14.9329 13.1944 12.5661 23.4601C10.0326 34.4479 20.7658 43.8597 31.3361 39.8447C41.2647 36.0736 43.585 23.048 35.5736 16.031Z" fill="#ED1C25"/>
<path d="M35.8317 23.1654C32.0324 27.255 27.8582 31.0234 23.9842 35.0363C23.6055 35.2602 23.2365 35.1353 22.9368 34.8557C20.9249 32.6329 18.3233 30.6303 16.3904 28.3664C14.0582 25.6353 17.4723 22.2027 20.2043 24.3914L23.5043 27.692L23.6066 27.7391L32.5128 18.7918C35.0062 16.8514 38.3138 19.8826 36.4533 22.5148C36.2553 22.7949 36.0395 22.9415 35.8323 23.1648L35.8317 23.1654ZM23.1868 32.7935C23.3009 32.9039 23.4919 33.2889 23.6693 33.1548L35.1376 21.6873C36.0173 20.5419 34.6708 19.1861 33.4741 20.066L24.0745 29.5021C23.7001 29.779 23.381 29.7385 23.018 29.4735L19.0066 25.4255C17.8191 24.8619 16.7539 25.9863 17.4729 27.1209C19.375 29.0143 21.2549 30.9315 23.1857 32.7935H23.1868Z" fill="#ED1C25"/>
</svg>
