<svg width="48" height="45" viewBox="0 0 48 45" fill="none" xmlns="http://www.w3.org/2000/svg">
<path d="M43.009 11.4905C50.8356 25.5883 41.9172 42.9105 25.665 44.8321C7.25414 47.0078 -6.08942 27.7037 2.84556 11.6859C9.66501 -0.537534 26.3602 -3.88408 37.3643 5.05958C37.4223 5.34945 35.9174 7.10496 35.6685 7.05936C35.5507 7.03819 34.1188 5.88522 33.7571 5.66863C16.8279 -4.45242 -3.17747 12.2184 4.28743 30.1953C6.78458 36.2077 12.7694 40.8863 19.267 42.0377C36.2244 45.0438 49.0021 27.3682 40.555 12.689C40.9714 12.4366 42.6307 11.2234 43.009 11.4905Z" fill="#ED1C25"/>
<path d="M46.1198 0.408549C46.2741 0.382493 47.8321 1.83673 47.9317 2.02727C47.998 2.15266 48.0428 2.22757 47.9317 2.34971L23.01 26.7673L10.5093 14.6464C11.0369 14.2996 12.0175 12.7215 12.6596 13.013L23.01 23.0217L46.1198 0.408549Z" fill="#ED1C25"/>
<path d="M24.2793 4.95679H21.6245V8.86516H24.2793V4.95679Z" fill="#ED1C25"/>
<path d="M36.8896 23.8469V21.2413H40.457C40.4985 21.2413 40.5897 21.0491 40.7075 21.1468C40.9979 21.3423 40.973 23.8469 40.6229 23.8469H36.8896Z" fill="#ED1C25"/>
<path d="M24.2793 36.0605H21.6245V39.9689H24.2793V36.0605Z" fill="#ED1C25"/>
<path d="M9.01439 23.8472H5.28111C5.01397 23.8472 5.2164 22.3572 5.20645 21.9647C5.19981 21.6862 5.15335 21.4876 5.03223 21.2417H8.7655C8.80699 21.2417 8.89658 21.069 9.01273 21.0772V23.8472H9.01439Z" fill="#ED1C25"/>
</svg>
