<svg width="703" height="129" viewBox="0 0 703 129" fill="none" xmlns="http://www.w3.org/2000/svg">
<path fill-rule="evenodd" clip-rule="evenodd" d="M651.133 19.4006C638.375 25.1359 625.617 30.8712 612.859 36.6065C608.177 38.8304 605.719 36.1383 607.709 34.0315C622.106 23.029 635.566 12.6118 650.08 1.49235C652.772 -0.49745 656.401 -0.49745 659.093 1.49235C673.489 12.4948 686.95 22.912 701.464 34.0315C703.454 36.2553 700.996 38.8304 696.314 36.6065C683.556 30.8712 670.797 25.1359 658.039 19.4006C655.815 18.3471 653.591 18.3471 651.133 19.4006Z" fill="#A61D3A"/>
<path d="M667.403 127.787L639.897 127.787V37.6605L667.403 37.6605V127.787ZM526.946 127.787H496.982L546.142 37.6605L581.256 37.6605L629.596 127.787H599.398L590.737 112.805L535.842 112.805L526.946 127.787ZM546.142 91.1393H580.788L563.231 59.1854L546.142 91.1393ZM452.504 37.6605C466.316 37.6605 476.265 40.1185 482.468 44.9174C488.789 49.7163 491.832 57.4414 491.832 67.9757V98.9932C491.832 109.059 489.374 116.316 484.341 120.881C479.308 125.563 471.349 127.787 460.463 127.787L373.38 127.787V37.6605L452.504 37.6605ZM444.077 59.8994L400.886 59.8994V105.899H447.471C453.323 105.899 457.537 104.728 460.346 102.27C463.038 99.9295 464.443 96.184 464.443 91.034V75.2326C464.443 69.9655 462.804 66.1029 459.527 63.5279C456.25 61.187 451.1 59.8994 444.077 59.8994ZM356.408 59.6536L285.361 59.6536V73.3481L352.195 73.3481V92.3098L285.361 92.3098V106.121L357.462 106.121V127.892L257.855 127.892V37.7775L356.291 37.7775V59.6653H356.408V59.6536ZM203.662 37.6605C217.942 37.6605 227.657 39.7673 232.807 43.981C237.957 48.1947 240.532 55.9198 240.532 67.1564C240.532 74.8815 239.361 80.7338 237.137 84.4793C234.797 88.2248 230.934 90.7999 225.55 92.0874C230.349 93.2579 233.86 95.2477 236.201 98.0568C238.542 100.983 239.83 104.611 239.83 109.176L239.83 127.67L212.323 127.67L212.323 113.975C212.323 110.464 211.504 108.006 209.865 106.718C208.227 105.431 204.832 104.728 199.916 104.728H158.833L158.833 127.787L131.21 127.787L131.21 37.6488L203.662 37.6488V37.6605ZM202.609 60.1218H158.833V82.1267H202.609C206.237 82.1267 208.812 81.3074 210.334 79.5516C211.855 77.7959 212.558 74.7527 212.558 70.3049C212.558 66.7935 211.738 64.2185 210.217 62.5798C208.578 60.9412 206.003 60.1218 202.609 60.1218ZM86.7319 70.1879V69.2515C86.7319 65.7401 85.5614 63.1651 83.2205 61.5264C80.8795 59.8877 77.2511 59.0684 72.2181 59.0684L50.0962 59.0684C40.6153 59.0684 34.6459 60.2389 31.9539 62.4628C29.2618 64.6867 27.9743 69.4856 27.9743 76.7425V89.2666C27.9743 95.7041 29.4959 100.269 32.4221 102.61C35.3482 105.068 41.3176 106.238 50.0962 106.238H66.1316C74.9101 106.238 80.6455 105.419 83.3375 103.663C86.0296 101.908 87.4342 98.6303 87.4342 93.9484V93.0121L115.291 93.0121C115.291 93.1291 115.291 93.3632 115.408 93.7143C115.525 96.2894 115.643 98.2792 115.643 99.5667C115.643 105.302 114.94 110.101 113.419 113.846C112.014 117.592 109.673 120.635 106.63 122.859C103.704 125.083 99.7241 126.605 94.8082 127.541C89.8922 128.477 82.7523 128.946 73.2715 128.946H42.4881C33.1243 128.946 26.2186 128.477 21.7708 127.424C17.323 126.37 13.5775 124.732 10.4172 122.274C6.78873 119.348 4.09665 115.836 2.45799 111.74C0.81933 107.526 0 102.259 0 95.9382L0 71.3584C0 58.4832 3.04322 49.4705 9.24672 44.3205C15.3332 39.1704 26.4527 36.7124 42.6052 36.7124L73.3885 36.7124C83.2205 36.7124 90.5945 37.1806 95.2764 37.9999C99.9582 38.9363 103.704 40.3409 106.396 42.4477C109.205 44.6716 111.312 47.5978 112.716 51.2262C114.004 54.8547 114.706 59.5366 114.706 65.1549V68.1981C114.706 68.9004 114.589 69.6026 114.589 70.1879L86.7319 70.1879Z" fill="#005B31"/>
</svg>
